<mxfile host="Electron" modified="2024-01-08T13:48:28.209Z" agent="Mozilla/5.0 (Windows NT 10.0; Win64; x64) AppleWebKit/537.36 (KHTML, like Gecko) draw.io/22.1.16 Chrome/120.0.6099.109 Electron/28.1.0 Safari/537.36" etag="oVHo2ZdViUa8-bHvM1Qg" version="22.1.16" type="device">
  <diagram name="ページ1" id="LE8fIzdrHe0wcv1LTvfw">
    <mxGraphModel dx="2830" dy="1673" grid="1" gridSize="10" guides="1" tooltips="1" connect="1" arrows="1" fold="1" page="1" pageScale="1" pageWidth="1600" pageHeight="1200" math="0" shadow="0">
      <root>
        <mxCell id="0" />
        <mxCell id="cFaB45KztUIKXS-_cTrr-4" value="背景" style="locked=1;" parent="0" visible="0" />
        <mxCell id="cFaB45KztUIKXS-_cTrr-5" value="" style="rounded=0;whiteSpace=wrap;html=1;strokeWidth=3;" parent="cFaB45KztUIKXS-_cTrr-4" vertex="1">
          <mxGeometry x="1" y="1" width="1595" height="1180" as="geometry" />
        </mxCell>
        <mxCell id="cFaB45KztUIKXS-_cTrr-6" value="" style="rounded=0;whiteSpace=wrap;html=1;fillColor=#B3B3B3;fontColor=#333333;strokeColor=#666666;" parent="cFaB45KztUIKXS-_cTrr-4" vertex="1">
          <mxGeometry width="1595" height="60" as="geometry" />
        </mxCell>
        <mxCell id="cFaB45KztUIKXS-_cTrr-7" value="&lt;font style=&quot;font-size: 48px;&quot;&gt;×&lt;/font&gt;" style="rounded=0;whiteSpace=wrap;html=1;" parent="cFaB45KztUIKXS-_cTrr-4" vertex="1">
          <mxGeometry x="1550" y="10" width="40" height="40" as="geometry" />
        </mxCell>
        <mxCell id="cFaB45KztUIKXS-_cTrr-8" value="" style="rounded=0;whiteSpace=wrap;html=1;" parent="cFaB45KztUIKXS-_cTrr-4" vertex="1">
          <mxGeometry x="830" y="670" width="120" height="60" as="geometry" />
        </mxCell>
        <mxCell id="cFaB45KztUIKXS-_cTrr-9" value="ウインドウ" style="locked=1;" parent="0" />
        <mxCell id="cFaB45KztUIKXS-_cTrr-10" value="" style="rounded=0;whiteSpace=wrap;html=1;strokeWidth=3;" parent="cFaB45KztUIKXS-_cTrr-9" vertex="1">
          <mxGeometry x="1" y="1" width="1595" height="1169" as="geometry" />
        </mxCell>
        <mxCell id="cFaB45KztUIKXS-_cTrr-11" value="" style="rounded=0;whiteSpace=wrap;html=1;fillColor=#B3B3B3;fontColor=#333333;strokeColor=#666666;" parent="cFaB45KztUIKXS-_cTrr-9" vertex="1">
          <mxGeometry width="1595" height="60" as="geometry" />
        </mxCell>
        <mxCell id="cFaB45KztUIKXS-_cTrr-12" value="&lt;font style=&quot;font-size: 48px;&quot;&gt;×&lt;/font&gt;" style="rounded=0;whiteSpace=wrap;html=1;" parent="cFaB45KztUIKXS-_cTrr-9" vertex="1">
          <mxGeometry x="1550" y="10" width="40" height="40" as="geometry" />
        </mxCell>
        <mxCell id="cFaB45KztUIKXS-_cTrr-14" value="名称未設定レイヤ" style="" parent="0" />
        <mxCell id="-aRjbIlAvJyihVMSlcDC-31" style="edgeStyle=orthogonalEdgeStyle;rounded=0;orthogonalLoop=1;jettySize=auto;html=1;exitX=0.5;exitY=0;exitDx=0;exitDy=0;entryX=0.5;entryY=1;entryDx=0;entryDy=0;" parent="cFaB45KztUIKXS-_cTrr-14" source="lHecheWsHZr5f5_axR1w-39" target="lHecheWsHZr5f5_axR1w-35" edge="1">
          <mxGeometry relative="1" as="geometry" />
        </mxCell>
        <mxCell id="lHecheWsHZr5f5_axR1w-30" value="" style="childLayout=tableLayout;recursiveResize=0;shadow=0;fillColor=none;" parent="cFaB45KztUIKXS-_cTrr-14" vertex="1">
          <mxGeometry x="22" y="133" width="1558" height="540" as="geometry" />
        </mxCell>
        <mxCell id="-aRjbIlAvJyihVMSlcDC-18" style="shape=tableRow;horizontal=0;startSize=0;swimlaneHead=0;swimlaneBody=0;top=0;left=0;bottom=0;right=0;dropTarget=0;collapsible=0;recursiveResize=0;expand=0;fontStyle=0;fillColor=none;strokeColor=inherit;" parent="lHecheWsHZr5f5_axR1w-30" vertex="1">
          <mxGeometry width="1558" height="60" as="geometry" />
        </mxCell>
        <mxCell id="-aRjbIlAvJyihVMSlcDC-19" value="&lt;font style=&quot;font-size: 30px;&quot;&gt;開始時間&lt;/font&gt;" style="connectable=0;recursiveResize=0;strokeColor=inherit;fillColor=none;align=center;whiteSpace=wrap;html=1;" parent="-aRjbIlAvJyihVMSlcDC-18" vertex="1">
          <mxGeometry width="130" height="60" as="geometry">
            <mxRectangle width="130" height="60" as="alternateBounds" />
          </mxGeometry>
        </mxCell>
        <mxCell id="-aRjbIlAvJyihVMSlcDC-20" value="&lt;font style=&quot;font-size: 30px;&quot;&gt;終了時間&lt;/font&gt;" style="connectable=0;recursiveResize=0;strokeColor=inherit;fillColor=none;align=center;whiteSpace=wrap;html=1;" parent="-aRjbIlAvJyihVMSlcDC-18" vertex="1">
          <mxGeometry x="130" width="130" height="60" as="geometry">
            <mxRectangle width="130" height="60" as="alternateBounds" />
          </mxGeometry>
        </mxCell>
        <mxCell id="-aRjbIlAvJyihVMSlcDC-21" value="&lt;font style=&quot;font-size: 30px;&quot;&gt;イベント&lt;/font&gt;" style="connectable=0;recursiveResize=0;strokeColor=inherit;fillColor=none;align=left;whiteSpace=wrap;html=1;" parent="-aRjbIlAvJyihVMSlcDC-18" vertex="1">
          <mxGeometry x="260" width="288" height="60" as="geometry">
            <mxRectangle width="288" height="60" as="alternateBounds" />
          </mxGeometry>
        </mxCell>
        <mxCell id="-aRjbIlAvJyihVMSlcDC-22" value="&lt;font style=&quot;font-size: 30px;&quot;&gt;支出&lt;/font&gt;" style="connectable=0;recursiveResize=0;strokeColor=inherit;fillColor=none;align=left;whiteSpace=wrap;html=1;" parent="-aRjbIlAvJyihVMSlcDC-18" vertex="1">
          <mxGeometry x="548" width="350" height="60" as="geometry">
            <mxRectangle width="350" height="60" as="alternateBounds" />
          </mxGeometry>
        </mxCell>
        <mxCell id="-aRjbIlAvJyihVMSlcDC-23" value="&lt;font style=&quot;font-size: 30px;&quot;&gt;収入&lt;/font&gt;" style="connectable=0;recursiveResize=0;strokeColor=inherit;fillColor=none;align=left;whiteSpace=wrap;html=1;" parent="-aRjbIlAvJyihVMSlcDC-18" vertex="1">
          <mxGeometry x="898" width="352" height="60" as="geometry">
            <mxRectangle width="352" height="60" as="alternateBounds" />
          </mxGeometry>
        </mxCell>
        <mxCell id="-aRjbIlAvJyihVMSlcDC-42" style="connectable=0;recursiveResize=0;strokeColor=inherit;fillColor=none;align=left;whiteSpace=wrap;html=1;" parent="-aRjbIlAvJyihVMSlcDC-18" vertex="1">
          <mxGeometry x="1250" width="170" height="60" as="geometry">
            <mxRectangle width="170" height="60" as="alternateBounds" />
          </mxGeometry>
        </mxCell>
        <mxCell id="fEjhOvrRUlLvb5Ld7npS-1" style="connectable=0;recursiveResize=0;strokeColor=inherit;fillColor=none;align=left;whiteSpace=wrap;html=1;" vertex="1" parent="-aRjbIlAvJyihVMSlcDC-18">
          <mxGeometry x="1420" width="138" height="60" as="geometry">
            <mxRectangle width="138" height="60" as="alternateBounds" />
          </mxGeometry>
        </mxCell>
        <mxCell id="lHecheWsHZr5f5_axR1w-31" value="" style="shape=tableRow;horizontal=0;startSize=0;swimlaneHead=0;swimlaneBody=0;top=0;left=0;bottom=0;right=0;dropTarget=0;collapsible=0;recursiveResize=0;expand=0;fontStyle=0;fillColor=none;strokeColor=inherit;" parent="lHecheWsHZr5f5_axR1w-30" vertex="1">
          <mxGeometry y="60" width="1558" height="60" as="geometry" />
        </mxCell>
        <mxCell id="lHecheWsHZr5f5_axR1w-32" value="&lt;font style=&quot;font-size: 30px;&quot;&gt;09:00&lt;/font&gt;" style="connectable=0;recursiveResize=0;strokeColor=inherit;fillColor=none;align=center;whiteSpace=wrap;html=1;" parent="lHecheWsHZr5f5_axR1w-31" vertex="1">
          <mxGeometry width="130" height="60" as="geometry">
            <mxRectangle width="130" height="60" as="alternateBounds" />
          </mxGeometry>
        </mxCell>
        <mxCell id="lHecheWsHZr5f5_axR1w-33" value="&lt;font style=&quot;font-size: 30px;&quot;&gt;10:00&lt;/font&gt;" style="connectable=0;recursiveResize=0;strokeColor=inherit;fillColor=none;align=center;whiteSpace=wrap;html=1;" parent="lHecheWsHZr5f5_axR1w-31" vertex="1">
          <mxGeometry x="130" width="130" height="60" as="geometry">
            <mxRectangle width="130" height="60" as="alternateBounds" />
          </mxGeometry>
        </mxCell>
        <mxCell id="lHecheWsHZr5f5_axR1w-34" value="&lt;font style=&quot;font-size: 30px;&quot;&gt;移動&lt;/font&gt;" style="connectable=0;recursiveResize=0;strokeColor=inherit;fillColor=none;align=left;whiteSpace=wrap;html=1;" parent="lHecheWsHZr5f5_axR1w-31" vertex="1">
          <mxGeometry x="260" width="288" height="60" as="geometry">
            <mxRectangle width="288" height="60" as="alternateBounds" />
          </mxGeometry>
        </mxCell>
        <mxCell id="-aRjbIlAvJyihVMSlcDC-12" style="connectable=0;recursiveResize=0;strokeColor=inherit;fillColor=none;align=left;whiteSpace=wrap;html=1;" parent="lHecheWsHZr5f5_axR1w-31" vertex="1">
          <mxGeometry x="548" width="350" height="60" as="geometry">
            <mxRectangle width="350" height="60" as="alternateBounds" />
          </mxGeometry>
        </mxCell>
        <mxCell id="-aRjbIlAvJyihVMSlcDC-24" style="connectable=0;recursiveResize=0;strokeColor=inherit;fillColor=none;align=left;whiteSpace=wrap;html=1;" parent="lHecheWsHZr5f5_axR1w-31" vertex="1">
          <mxGeometry x="898" width="352" height="60" as="geometry">
            <mxRectangle width="352" height="60" as="alternateBounds" />
          </mxGeometry>
        </mxCell>
        <mxCell id="-aRjbIlAvJyihVMSlcDC-43" style="connectable=0;recursiveResize=0;strokeColor=inherit;fillColor=none;align=left;whiteSpace=wrap;html=1;" parent="lHecheWsHZr5f5_axR1w-31" vertex="1">
          <mxGeometry x="1250" width="170" height="60" as="geometry">
            <mxRectangle width="170" height="60" as="alternateBounds" />
          </mxGeometry>
        </mxCell>
        <mxCell id="fEjhOvrRUlLvb5Ld7npS-2" style="connectable=0;recursiveResize=0;strokeColor=inherit;fillColor=none;align=left;whiteSpace=wrap;html=1;" vertex="1" parent="lHecheWsHZr5f5_axR1w-31">
          <mxGeometry x="1420" width="138" height="60" as="geometry">
            <mxRectangle width="138" height="60" as="alternateBounds" />
          </mxGeometry>
        </mxCell>
        <mxCell id="lHecheWsHZr5f5_axR1w-35" style="shape=tableRow;horizontal=0;startSize=0;swimlaneHead=0;swimlaneBody=0;top=0;left=0;bottom=0;right=0;dropTarget=0;collapsible=0;recursiveResize=0;expand=0;fontStyle=0;fillColor=none;strokeColor=inherit;" parent="lHecheWsHZr5f5_axR1w-30" vertex="1">
          <mxGeometry y="120" width="1558" height="60" as="geometry" />
        </mxCell>
        <mxCell id="lHecheWsHZr5f5_axR1w-36" value="&lt;font style=&quot;font-size: 30px;&quot;&gt;10:15&lt;/font&gt;" style="connectable=0;recursiveResize=0;strokeColor=inherit;fillColor=none;align=center;whiteSpace=wrap;html=1;" parent="lHecheWsHZr5f5_axR1w-35" vertex="1">
          <mxGeometry width="130" height="60" as="geometry">
            <mxRectangle width="130" height="60" as="alternateBounds" />
          </mxGeometry>
        </mxCell>
        <mxCell id="lHecheWsHZr5f5_axR1w-37" value="&lt;font style=&quot;font-size: 30px;&quot;&gt;12:45&lt;/font&gt;" style="connectable=0;recursiveResize=0;strokeColor=inherit;fillColor=none;align=center;whiteSpace=wrap;html=1;" parent="lHecheWsHZr5f5_axR1w-35" vertex="1">
          <mxGeometry x="130" width="130" height="60" as="geometry">
            <mxRectangle width="130" height="60" as="alternateBounds" />
          </mxGeometry>
        </mxCell>
        <mxCell id="lHecheWsHZr5f5_axR1w-38" value="&lt;font style=&quot;font-size: 30px;&quot;&gt;xx市場視察(1)&lt;/font&gt;" style="connectable=0;recursiveResize=0;strokeColor=inherit;fillColor=none;align=left;whiteSpace=wrap;html=1;" parent="lHecheWsHZr5f5_axR1w-35" vertex="1">
          <mxGeometry x="260" width="288" height="60" as="geometry">
            <mxRectangle width="288" height="60" as="alternateBounds" />
          </mxGeometry>
        </mxCell>
        <mxCell id="-aRjbIlAvJyihVMSlcDC-13" style="connectable=0;recursiveResize=0;strokeColor=inherit;fillColor=none;align=left;whiteSpace=wrap;html=1;" parent="lHecheWsHZr5f5_axR1w-35" vertex="1">
          <mxGeometry x="548" width="350" height="60" as="geometry">
            <mxRectangle width="350" height="60" as="alternateBounds" />
          </mxGeometry>
        </mxCell>
        <mxCell id="-aRjbIlAvJyihVMSlcDC-25" style="connectable=0;recursiveResize=0;strokeColor=inherit;fillColor=none;align=left;whiteSpace=wrap;html=1;" parent="lHecheWsHZr5f5_axR1w-35" vertex="1">
          <mxGeometry x="898" width="352" height="60" as="geometry">
            <mxRectangle width="352" height="60" as="alternateBounds" />
          </mxGeometry>
        </mxCell>
        <mxCell id="-aRjbIlAvJyihVMSlcDC-44" style="connectable=0;recursiveResize=0;strokeColor=inherit;fillColor=none;align=left;whiteSpace=wrap;html=1;" parent="lHecheWsHZr5f5_axR1w-35" vertex="1">
          <mxGeometry x="1250" width="170" height="60" as="geometry">
            <mxRectangle width="170" height="60" as="alternateBounds" />
          </mxGeometry>
        </mxCell>
        <mxCell id="fEjhOvrRUlLvb5Ld7npS-3" style="connectable=0;recursiveResize=0;strokeColor=inherit;fillColor=none;align=left;whiteSpace=wrap;html=1;" vertex="1" parent="lHecheWsHZr5f5_axR1w-35">
          <mxGeometry x="1420" width="138" height="60" as="geometry">
            <mxRectangle width="138" height="60" as="alternateBounds" />
          </mxGeometry>
        </mxCell>
        <mxCell id="lHecheWsHZr5f5_axR1w-39" style="shape=tableRow;horizontal=0;startSize=0;swimlaneHead=0;swimlaneBody=0;top=0;left=0;bottom=0;right=0;dropTarget=0;collapsible=0;recursiveResize=0;expand=0;fontStyle=0;fillColor=none;strokeColor=inherit;" parent="lHecheWsHZr5f5_axR1w-30" vertex="1">
          <mxGeometry y="180" width="1558" height="60" as="geometry" />
        </mxCell>
        <mxCell id="lHecheWsHZr5f5_axR1w-40" value="&lt;font style=&quot;font-size: 30px;&quot;&gt;13:00&lt;/font&gt;" style="connectable=0;recursiveResize=0;strokeColor=inherit;fillColor=none;align=center;whiteSpace=wrap;html=1;" parent="lHecheWsHZr5f5_axR1w-39" vertex="1">
          <mxGeometry width="130" height="60" as="geometry">
            <mxRectangle width="130" height="60" as="alternateBounds" />
          </mxGeometry>
        </mxCell>
        <mxCell id="lHecheWsHZr5f5_axR1w-41" value="&lt;font style=&quot;font-size: 30px;&quot;&gt;15:00&lt;/font&gt;" style="connectable=0;recursiveResize=0;strokeColor=inherit;fillColor=none;align=center;whiteSpace=wrap;html=1;" parent="lHecheWsHZr5f5_axR1w-39" vertex="1">
          <mxGeometry x="130" width="130" height="60" as="geometry">
            <mxRectangle width="130" height="60" as="alternateBounds" />
          </mxGeometry>
        </mxCell>
        <mxCell id="lHecheWsHZr5f5_axR1w-42" value="&lt;font style=&quot;font-size: 30px;&quot;&gt;xx地区祭り参加&lt;/font&gt;" style="connectable=0;recursiveResize=0;strokeColor=inherit;fillColor=none;align=left;whiteSpace=wrap;html=1;" parent="lHecheWsHZr5f5_axR1w-39" vertex="1">
          <mxGeometry x="260" width="288" height="60" as="geometry">
            <mxRectangle width="288" height="60" as="alternateBounds" />
          </mxGeometry>
        </mxCell>
        <mxCell id="-aRjbIlAvJyihVMSlcDC-14" style="connectable=0;recursiveResize=0;strokeColor=inherit;fillColor=none;align=left;whiteSpace=wrap;html=1;" parent="lHecheWsHZr5f5_axR1w-39" vertex="1">
          <mxGeometry x="548" width="350" height="60" as="geometry">
            <mxRectangle width="350" height="60" as="alternateBounds" />
          </mxGeometry>
        </mxCell>
        <mxCell id="-aRjbIlAvJyihVMSlcDC-26" style="connectable=0;recursiveResize=0;strokeColor=inherit;fillColor=none;align=left;whiteSpace=wrap;html=1;" parent="lHecheWsHZr5f5_axR1w-39" vertex="1">
          <mxGeometry x="898" width="352" height="60" as="geometry">
            <mxRectangle width="352" height="60" as="alternateBounds" />
          </mxGeometry>
        </mxCell>
        <mxCell id="-aRjbIlAvJyihVMSlcDC-45" style="connectable=0;recursiveResize=0;strokeColor=inherit;fillColor=none;align=left;whiteSpace=wrap;html=1;" parent="lHecheWsHZr5f5_axR1w-39" vertex="1">
          <mxGeometry x="1250" width="170" height="60" as="geometry">
            <mxRectangle width="170" height="60" as="alternateBounds" />
          </mxGeometry>
        </mxCell>
        <mxCell id="fEjhOvrRUlLvb5Ld7npS-4" style="connectable=0;recursiveResize=0;strokeColor=inherit;fillColor=none;align=left;whiteSpace=wrap;html=1;" vertex="1" parent="lHecheWsHZr5f5_axR1w-39">
          <mxGeometry x="1420" width="138" height="60" as="geometry">
            <mxRectangle width="138" height="60" as="alternateBounds" />
          </mxGeometry>
        </mxCell>
        <mxCell id="-aRjbIlAvJyihVMSlcDC-8" style="shape=tableRow;horizontal=0;startSize=0;swimlaneHead=0;swimlaneBody=0;top=0;left=0;bottom=0;right=0;dropTarget=0;collapsible=0;recursiveResize=0;expand=0;fontStyle=0;fillColor=none;strokeColor=inherit;" parent="lHecheWsHZr5f5_axR1w-30" vertex="1">
          <mxGeometry y="240" width="1558" height="60" as="geometry" />
        </mxCell>
        <mxCell id="-aRjbIlAvJyihVMSlcDC-9" style="connectable=0;recursiveResize=0;strokeColor=inherit;fillColor=none;align=center;whiteSpace=wrap;html=1;" parent="-aRjbIlAvJyihVMSlcDC-8" vertex="1">
          <mxGeometry width="130" height="60" as="geometry">
            <mxRectangle width="130" height="60" as="alternateBounds" />
          </mxGeometry>
        </mxCell>
        <mxCell id="-aRjbIlAvJyihVMSlcDC-10" style="connectable=0;recursiveResize=0;strokeColor=inherit;fillColor=none;align=center;whiteSpace=wrap;html=1;" parent="-aRjbIlAvJyihVMSlcDC-8" vertex="1">
          <mxGeometry x="130" width="130" height="60" as="geometry">
            <mxRectangle width="130" height="60" as="alternateBounds" />
          </mxGeometry>
        </mxCell>
        <mxCell id="-aRjbIlAvJyihVMSlcDC-11" value="&lt;font style=&quot;font-size: 30px;&quot;&gt;空白&lt;/font&gt;" style="connectable=0;recursiveResize=0;strokeColor=inherit;fillColor=none;align=left;whiteSpace=wrap;html=1;" parent="-aRjbIlAvJyihVMSlcDC-8" vertex="1">
          <mxGeometry x="260" width="288" height="60" as="geometry">
            <mxRectangle width="288" height="60" as="alternateBounds" />
          </mxGeometry>
        </mxCell>
        <mxCell id="-aRjbIlAvJyihVMSlcDC-15" style="connectable=0;recursiveResize=0;strokeColor=inherit;fillColor=none;align=left;whiteSpace=wrap;html=1;" parent="-aRjbIlAvJyihVMSlcDC-8" vertex="1">
          <mxGeometry x="548" width="350" height="60" as="geometry">
            <mxRectangle width="350" height="60" as="alternateBounds" />
          </mxGeometry>
        </mxCell>
        <mxCell id="-aRjbIlAvJyihVMSlcDC-27" style="connectable=0;recursiveResize=0;strokeColor=inherit;fillColor=none;align=left;whiteSpace=wrap;html=1;" parent="-aRjbIlAvJyihVMSlcDC-8" vertex="1">
          <mxGeometry x="898" width="352" height="60" as="geometry">
            <mxRectangle width="352" height="60" as="alternateBounds" />
          </mxGeometry>
        </mxCell>
        <mxCell id="-aRjbIlAvJyihVMSlcDC-46" style="connectable=0;recursiveResize=0;strokeColor=inherit;fillColor=none;align=left;whiteSpace=wrap;html=1;" parent="-aRjbIlAvJyihVMSlcDC-8" vertex="1">
          <mxGeometry x="1250" width="170" height="60" as="geometry">
            <mxRectangle width="170" height="60" as="alternateBounds" />
          </mxGeometry>
        </mxCell>
        <mxCell id="fEjhOvrRUlLvb5Ld7npS-5" style="connectable=0;recursiveResize=0;strokeColor=inherit;fillColor=none;align=left;whiteSpace=wrap;html=1;" vertex="1" parent="-aRjbIlAvJyihVMSlcDC-8">
          <mxGeometry x="1420" width="138" height="60" as="geometry">
            <mxRectangle width="138" height="60" as="alternateBounds" />
          </mxGeometry>
        </mxCell>
        <mxCell id="-aRjbIlAvJyihVMSlcDC-4" style="shape=tableRow;horizontal=0;startSize=0;swimlaneHead=0;swimlaneBody=0;top=0;left=0;bottom=0;right=0;dropTarget=0;collapsible=0;recursiveResize=0;expand=0;fontStyle=0;fillColor=none;strokeColor=inherit;" parent="lHecheWsHZr5f5_axR1w-30" vertex="1">
          <mxGeometry y="300" width="1558" height="60" as="geometry" />
        </mxCell>
        <mxCell id="-aRjbIlAvJyihVMSlcDC-5" value="&lt;font style=&quot;font-size: 30px;&quot;&gt;19;30&lt;/font&gt;" style="connectable=0;recursiveResize=0;strokeColor=inherit;fillColor=none;align=center;whiteSpace=wrap;html=1;" parent="-aRjbIlAvJyihVMSlcDC-4" vertex="1">
          <mxGeometry width="130" height="60" as="geometry">
            <mxRectangle width="130" height="60" as="alternateBounds" />
          </mxGeometry>
        </mxCell>
        <mxCell id="-aRjbIlAvJyihVMSlcDC-6" value="&lt;font style=&quot;font-size: 30px;&quot;&gt;21:00&lt;/font&gt;" style="connectable=0;recursiveResize=0;strokeColor=inherit;fillColor=none;align=center;whiteSpace=wrap;html=1;" parent="-aRjbIlAvJyihVMSlcDC-4" vertex="1">
          <mxGeometry x="130" width="130" height="60" as="geometry">
            <mxRectangle width="130" height="60" as="alternateBounds" />
          </mxGeometry>
        </mxCell>
        <mxCell id="-aRjbIlAvJyihVMSlcDC-7" style="connectable=0;recursiveResize=0;strokeColor=inherit;fillColor=none;align=left;whiteSpace=wrap;html=1;" parent="-aRjbIlAvJyihVMSlcDC-4" vertex="1">
          <mxGeometry x="260" width="288" height="60" as="geometry">
            <mxRectangle width="288" height="60" as="alternateBounds" />
          </mxGeometry>
        </mxCell>
        <mxCell id="-aRjbIlAvJyihVMSlcDC-16" style="connectable=0;recursiveResize=0;strokeColor=inherit;fillColor=none;align=left;whiteSpace=wrap;html=1;" parent="-aRjbIlAvJyihVMSlcDC-4" vertex="1">
          <mxGeometry x="548" width="350" height="60" as="geometry">
            <mxRectangle width="350" height="60" as="alternateBounds" />
          </mxGeometry>
        </mxCell>
        <mxCell id="-aRjbIlAvJyihVMSlcDC-28" style="connectable=0;recursiveResize=0;strokeColor=inherit;fillColor=none;align=left;whiteSpace=wrap;html=1;" parent="-aRjbIlAvJyihVMSlcDC-4" vertex="1">
          <mxGeometry x="898" width="352" height="60" as="geometry">
            <mxRectangle width="352" height="60" as="alternateBounds" />
          </mxGeometry>
        </mxCell>
        <mxCell id="-aRjbIlAvJyihVMSlcDC-47" style="connectable=0;recursiveResize=0;strokeColor=inherit;fillColor=none;align=left;whiteSpace=wrap;html=1;" parent="-aRjbIlAvJyihVMSlcDC-4" vertex="1">
          <mxGeometry x="1250" width="170" height="60" as="geometry">
            <mxRectangle width="170" height="60" as="alternateBounds" />
          </mxGeometry>
        </mxCell>
        <mxCell id="fEjhOvrRUlLvb5Ld7npS-6" style="connectable=0;recursiveResize=0;strokeColor=inherit;fillColor=none;align=left;whiteSpace=wrap;html=1;" vertex="1" parent="-aRjbIlAvJyihVMSlcDC-4">
          <mxGeometry x="1420" width="138" height="60" as="geometry">
            <mxRectangle width="138" height="60" as="alternateBounds" />
          </mxGeometry>
        </mxCell>
        <mxCell id="-aRjbIlAvJyihVMSlcDC-0" style="shape=tableRow;horizontal=0;startSize=0;swimlaneHead=0;swimlaneBody=0;top=0;left=0;bottom=0;right=0;dropTarget=0;collapsible=0;recursiveResize=0;expand=0;fontStyle=0;fillColor=none;strokeColor=inherit;" parent="lHecheWsHZr5f5_axR1w-30" vertex="1">
          <mxGeometry y="360" width="1558" height="60" as="geometry" />
        </mxCell>
        <mxCell id="-aRjbIlAvJyihVMSlcDC-1" style="connectable=0;recursiveResize=0;strokeColor=inherit;fillColor=none;align=center;whiteSpace=wrap;html=1;" parent="-aRjbIlAvJyihVMSlcDC-0" vertex="1">
          <mxGeometry width="130" height="60" as="geometry">
            <mxRectangle width="130" height="60" as="alternateBounds" />
          </mxGeometry>
        </mxCell>
        <mxCell id="-aRjbIlAvJyihVMSlcDC-2" style="connectable=0;recursiveResize=0;strokeColor=inherit;fillColor=none;align=center;whiteSpace=wrap;html=1;" parent="-aRjbIlAvJyihVMSlcDC-0" vertex="1">
          <mxGeometry x="130" width="130" height="60" as="geometry">
            <mxRectangle width="130" height="60" as="alternateBounds" />
          </mxGeometry>
        </mxCell>
        <mxCell id="-aRjbIlAvJyihVMSlcDC-3" style="connectable=0;recursiveResize=0;strokeColor=inherit;fillColor=none;align=left;whiteSpace=wrap;html=1;" parent="-aRjbIlAvJyihVMSlcDC-0" vertex="1">
          <mxGeometry x="260" width="288" height="60" as="geometry">
            <mxRectangle width="288" height="60" as="alternateBounds" />
          </mxGeometry>
        </mxCell>
        <mxCell id="-aRjbIlAvJyihVMSlcDC-17" style="connectable=0;recursiveResize=0;strokeColor=inherit;fillColor=none;align=left;whiteSpace=wrap;html=1;" parent="-aRjbIlAvJyihVMSlcDC-0" vertex="1">
          <mxGeometry x="548" width="350" height="60" as="geometry">
            <mxRectangle width="350" height="60" as="alternateBounds" />
          </mxGeometry>
        </mxCell>
        <mxCell id="-aRjbIlAvJyihVMSlcDC-29" style="connectable=0;recursiveResize=0;strokeColor=inherit;fillColor=none;align=left;whiteSpace=wrap;html=1;" parent="-aRjbIlAvJyihVMSlcDC-0" vertex="1">
          <mxGeometry x="898" width="352" height="60" as="geometry">
            <mxRectangle width="352" height="60" as="alternateBounds" />
          </mxGeometry>
        </mxCell>
        <mxCell id="-aRjbIlAvJyihVMSlcDC-48" style="connectable=0;recursiveResize=0;strokeColor=inherit;fillColor=none;align=left;whiteSpace=wrap;html=1;" parent="-aRjbIlAvJyihVMSlcDC-0" vertex="1">
          <mxGeometry x="1250" width="170" height="60" as="geometry">
            <mxRectangle width="170" height="60" as="alternateBounds" />
          </mxGeometry>
        </mxCell>
        <mxCell id="fEjhOvrRUlLvb5Ld7npS-7" style="connectable=0;recursiveResize=0;strokeColor=inherit;fillColor=none;align=left;whiteSpace=wrap;html=1;" vertex="1" parent="-aRjbIlAvJyihVMSlcDC-0">
          <mxGeometry x="1420" width="138" height="60" as="geometry">
            <mxRectangle width="138" height="60" as="alternateBounds" />
          </mxGeometry>
        </mxCell>
        <mxCell id="-aRjbIlAvJyihVMSlcDC-113" style="shape=tableRow;horizontal=0;startSize=0;swimlaneHead=0;swimlaneBody=0;top=0;left=0;bottom=0;right=0;dropTarget=0;collapsible=0;recursiveResize=0;expand=0;fontStyle=0;fillColor=none;strokeColor=inherit;" parent="lHecheWsHZr5f5_axR1w-30" vertex="1">
          <mxGeometry y="420" width="1558" height="60" as="geometry" />
        </mxCell>
        <mxCell id="-aRjbIlAvJyihVMSlcDC-114" style="connectable=0;recursiveResize=0;strokeColor=inherit;fillColor=none;align=center;whiteSpace=wrap;html=1;" parent="-aRjbIlAvJyihVMSlcDC-113" vertex="1">
          <mxGeometry width="130" height="60" as="geometry">
            <mxRectangle width="130" height="60" as="alternateBounds" />
          </mxGeometry>
        </mxCell>
        <mxCell id="-aRjbIlAvJyihVMSlcDC-115" style="connectable=0;recursiveResize=0;strokeColor=inherit;fillColor=none;align=center;whiteSpace=wrap;html=1;" parent="-aRjbIlAvJyihVMSlcDC-113" vertex="1">
          <mxGeometry x="130" width="130" height="60" as="geometry">
            <mxRectangle width="130" height="60" as="alternateBounds" />
          </mxGeometry>
        </mxCell>
        <mxCell id="-aRjbIlAvJyihVMSlcDC-116" value="&lt;font style=&quot;font-size: 30px;&quot;&gt;合計&lt;/font&gt;" style="connectable=0;recursiveResize=0;strokeColor=inherit;fillColor=none;align=left;whiteSpace=wrap;html=1;" parent="-aRjbIlAvJyihVMSlcDC-113" vertex="1">
          <mxGeometry x="260" width="288" height="60" as="geometry">
            <mxRectangle width="288" height="60" as="alternateBounds" />
          </mxGeometry>
        </mxCell>
        <mxCell id="-aRjbIlAvJyihVMSlcDC-117" value="&lt;font style=&quot;font-size: 30px;&quot;&gt;-240,250&lt;/font&gt;" style="connectable=0;recursiveResize=0;strokeColor=inherit;fillColor=none;align=right;whiteSpace=wrap;html=1;" parent="-aRjbIlAvJyihVMSlcDC-113" vertex="1">
          <mxGeometry x="548" width="350" height="60" as="geometry">
            <mxRectangle width="350" height="60" as="alternateBounds" />
          </mxGeometry>
        </mxCell>
        <mxCell id="-aRjbIlAvJyihVMSlcDC-118" value="&lt;font style=&quot;font-size: 30px;&quot;&gt;1,000,00&lt;/font&gt;" style="connectable=0;recursiveResize=0;strokeColor=inherit;fillColor=none;align=right;whiteSpace=wrap;html=1;" parent="-aRjbIlAvJyihVMSlcDC-113" vertex="1">
          <mxGeometry x="898" width="352" height="60" as="geometry">
            <mxRectangle width="352" height="60" as="alternateBounds" />
          </mxGeometry>
        </mxCell>
        <mxCell id="-aRjbIlAvJyihVMSlcDC-119" style="connectable=0;recursiveResize=0;strokeColor=inherit;fillColor=none;align=left;whiteSpace=wrap;html=1;" parent="-aRjbIlAvJyihVMSlcDC-113" vertex="1">
          <mxGeometry x="1250" width="170" height="60" as="geometry">
            <mxRectangle width="170" height="60" as="alternateBounds" />
          </mxGeometry>
        </mxCell>
        <mxCell id="fEjhOvrRUlLvb5Ld7npS-8" style="connectable=0;recursiveResize=0;strokeColor=inherit;fillColor=none;align=left;whiteSpace=wrap;html=1;" vertex="1" parent="-aRjbIlAvJyihVMSlcDC-113">
          <mxGeometry x="1420" width="138" height="60" as="geometry">
            <mxRectangle width="138" height="60" as="alternateBounds" />
          </mxGeometry>
        </mxCell>
        <mxCell id="-aRjbIlAvJyihVMSlcDC-120" style="shape=tableRow;horizontal=0;startSize=0;swimlaneHead=0;swimlaneBody=0;top=0;left=0;bottom=0;right=0;dropTarget=0;collapsible=0;recursiveResize=0;expand=0;fontStyle=0;fillColor=none;strokeColor=inherit;" parent="lHecheWsHZr5f5_axR1w-30" vertex="1">
          <mxGeometry y="480" width="1558" height="60" as="geometry" />
        </mxCell>
        <mxCell id="-aRjbIlAvJyihVMSlcDC-121" style="connectable=0;recursiveResize=0;strokeColor=inherit;fillColor=none;align=center;whiteSpace=wrap;html=1;" parent="-aRjbIlAvJyihVMSlcDC-120" vertex="1">
          <mxGeometry width="130" height="60" as="geometry">
            <mxRectangle width="130" height="60" as="alternateBounds" />
          </mxGeometry>
        </mxCell>
        <mxCell id="-aRjbIlAvJyihVMSlcDC-122" style="connectable=0;recursiveResize=0;strokeColor=inherit;fillColor=none;align=center;whiteSpace=wrap;html=1;" parent="-aRjbIlAvJyihVMSlcDC-120" vertex="1">
          <mxGeometry x="130" width="130" height="60" as="geometry">
            <mxRectangle width="130" height="60" as="alternateBounds" />
          </mxGeometry>
        </mxCell>
        <mxCell id="-aRjbIlAvJyihVMSlcDC-123" value="&lt;font style=&quot;font-size: 30px;&quot;&gt;差額&lt;/font&gt;" style="connectable=0;recursiveResize=0;strokeColor=inherit;fillColor=none;align=left;whiteSpace=wrap;html=1;" parent="-aRjbIlAvJyihVMSlcDC-120" vertex="1">
          <mxGeometry x="260" width="288" height="60" as="geometry">
            <mxRectangle width="288" height="60" as="alternateBounds" />
          </mxGeometry>
        </mxCell>
        <mxCell id="-aRjbIlAvJyihVMSlcDC-124" value="&lt;font style=&quot;font-size: 30px;&quot;&gt;108,940&lt;/font&gt;" style="connectable=0;recursiveResize=0;strokeColor=inherit;fillColor=none;align=right;whiteSpace=wrap;html=1;" parent="-aRjbIlAvJyihVMSlcDC-120" vertex="1">
          <mxGeometry x="548" width="350" height="60" as="geometry">
            <mxRectangle width="350" height="60" as="alternateBounds" />
          </mxGeometry>
        </mxCell>
        <mxCell id="-aRjbIlAvJyihVMSlcDC-125" value="&lt;span style=&quot;font-size: 30px;&quot;&gt;500,00&lt;/span&gt;" style="connectable=0;recursiveResize=0;strokeColor=inherit;fillColor=none;align=right;whiteSpace=wrap;html=1;" parent="-aRjbIlAvJyihVMSlcDC-120" vertex="1">
          <mxGeometry x="898" width="352" height="60" as="geometry">
            <mxRectangle width="352" height="60" as="alternateBounds" />
          </mxGeometry>
        </mxCell>
        <mxCell id="-aRjbIlAvJyihVMSlcDC-126" style="connectable=0;recursiveResize=0;strokeColor=inherit;fillColor=none;align=left;whiteSpace=wrap;html=1;" parent="-aRjbIlAvJyihVMSlcDC-120" vertex="1">
          <mxGeometry x="1250" width="170" height="60" as="geometry">
            <mxRectangle width="170" height="60" as="alternateBounds" />
          </mxGeometry>
        </mxCell>
        <mxCell id="fEjhOvrRUlLvb5Ld7npS-9" style="connectable=0;recursiveResize=0;strokeColor=inherit;fillColor=none;align=left;whiteSpace=wrap;html=1;" vertex="1" parent="-aRjbIlAvJyihVMSlcDC-120">
          <mxGeometry x="1420" width="138" height="60" as="geometry">
            <mxRectangle width="138" height="60" as="alternateBounds" />
          </mxGeometry>
        </mxCell>
        <mxCell id="-aRjbIlAvJyihVMSlcDC-30" value="&lt;span style=&quot;font-size: 30px;&quot;&gt;▼該当なし&lt;/span&gt;" style="rounded=0;whiteSpace=wrap;html=1;align=left;fillColor=#FFFFFF;" parent="cFaB45KztUIKXS-_cTrr-14" vertex="1">
          <mxGeometry x="575" y="200" width="331" height="48" as="geometry" />
        </mxCell>
        <mxCell id="-aRjbIlAvJyihVMSlcDC-32" value="&lt;span style=&quot;font-size: 30px;&quot;&gt;▼書籍代 -10,250&lt;/span&gt;" style="rounded=0;whiteSpace=wrap;html=1;align=left;fillColor=#FFFFFF;" parent="cFaB45KztUIKXS-_cTrr-14" vertex="1">
          <mxGeometry x="575" y="260" width="331" height="48" as="geometry" />
        </mxCell>
        <mxCell id="-aRjbIlAvJyihVMSlcDC-33" value="&lt;span style=&quot;font-size: 30px;&quot;&gt;▼該当なし&lt;/span&gt;" style="rounded=0;whiteSpace=wrap;html=1;align=left;fillColor=#FFFFFF;" parent="cFaB45KztUIKXS-_cTrr-14" vertex="1">
          <mxGeometry x="925" y="200" width="333" height="48" as="geometry" />
        </mxCell>
        <mxCell id="-aRjbIlAvJyihVMSlcDC-34" value="&lt;span style=&quot;font-size: 30px;&quot;&gt;▼該当なし&lt;/span&gt;" style="rounded=0;whiteSpace=wrap;html=1;align=left;fillColor=#FFFFFF;" parent="cFaB45KztUIKXS-_cTrr-14" vertex="1">
          <mxGeometry x="924" y="259" width="333" height="48" as="geometry" />
        </mxCell>
        <mxCell id="-aRjbIlAvJyihVMSlcDC-35" value="&lt;span style=&quot;font-size: 30px;&quot;&gt;▼おやつ -1,100&lt;/span&gt;" style="rounded=0;whiteSpace=wrap;html=1;align=left;fillColor=#FFFFFF;" parent="cFaB45KztUIKXS-_cTrr-14" vertex="1">
          <mxGeometry x="574" y="320" width="332" height="48" as="geometry" />
        </mxCell>
        <mxCell id="-aRjbIlAvJyihVMSlcDC-36" value="&lt;span style=&quot;font-size: 30px;&quot;&gt;▼該当なし&lt;/span&gt;" style="rounded=0;whiteSpace=wrap;html=1;align=left;fillColor=#FFFFFF;" parent="cFaB45KztUIKXS-_cTrr-14" vertex="1">
          <mxGeometry x="925" y="319" width="334" height="48" as="geometry" />
        </mxCell>
        <mxCell id="-aRjbIlAvJyihVMSlcDC-37" value="&lt;span style=&quot;font-size: 30px;&quot;&gt;政策報告会&lt;/span&gt;" style="connectable=0;recursiveResize=0;strokeColor=inherit;fillColor=none;align=left;whiteSpace=wrap;html=1;" parent="cFaB45KztUIKXS-_cTrr-14" vertex="1">
          <mxGeometry x="283" y="433" width="290" height="60" as="geometry">
            <mxRectangle width="290" height="60" as="alternateBounds" />
          </mxGeometry>
        </mxCell>
        <mxCell id="-aRjbIlAvJyihVMSlcDC-38" value="&lt;span style=&quot;font-size: 30px;&quot;&gt;▼弁当代-1,000×120&lt;/span&gt;" style="rounded=0;whiteSpace=wrap;html=1;align=left;fillColor=#FFFFFF;" parent="cFaB45KztUIKXS-_cTrr-14" vertex="1">
          <mxGeometry x="573" y="440" width="333" height="48" as="geometry" />
        </mxCell>
        <mxCell id="-aRjbIlAvJyihVMSlcDC-39" value="&lt;span style=&quot;font-size: 30px;&quot;&gt;▼参加費 10,000×100&lt;/span&gt;" style="rounded=0;whiteSpace=wrap;html=1;align=left;fillColor=#FFFFFF;" parent="cFaB45KztUIKXS-_cTrr-14" vertex="1">
          <mxGeometry x="925" y="440" width="331" height="48" as="geometry" />
        </mxCell>
        <mxCell id="-aRjbIlAvJyihVMSlcDC-41" value="&lt;font style=&quot;font-size: 30px;&quot;&gt;行追加&lt;/font&gt;" style="rounded=1;whiteSpace=wrap;html=1;strokeWidth=4;" parent="cFaB45KztUIKXS-_cTrr-14" vertex="1">
          <mxGeometry x="28" y="499" width="120" height="50" as="geometry" />
        </mxCell>
        <mxCell id="-aRjbIlAvJyihVMSlcDC-99" value="&lt;font style=&quot;font-size: 30px;&quot;&gt;&lt;b&gt;↑&lt;/b&gt;&lt;/font&gt;" style="rounded=1;whiteSpace=wrap;html=1;strokeWidth=4;" parent="cFaB45KztUIKXS-_cTrr-14" vertex="1">
          <mxGeometry x="1296" y="199" width="50" height="50" as="geometry" />
        </mxCell>
        <mxCell id="-aRjbIlAvJyihVMSlcDC-100" value="&lt;span style=&quot;font-size: 30px;&quot;&gt;&lt;b&gt;↓&lt;/b&gt;&lt;/span&gt;" style="rounded=1;whiteSpace=wrap;html=1;strokeWidth=4;" parent="cFaB45KztUIKXS-_cTrr-14" vertex="1">
          <mxGeometry x="1366" y="199" width="50" height="50" as="geometry" />
        </mxCell>
        <mxCell id="-aRjbIlAvJyihVMSlcDC-101" style="connectable=0;recursiveResize=0;strokeColor=inherit;fillColor=none;align=left;whiteSpace=wrap;html=1;" parent="cFaB45KztUIKXS-_cTrr-14" vertex="1">
          <mxGeometry x="1270" y="253" width="170" height="60" as="geometry">
            <mxRectangle width="170" height="60" as="alternateBounds" />
          </mxGeometry>
        </mxCell>
        <mxCell id="-aRjbIlAvJyihVMSlcDC-102" value="&lt;font style=&quot;font-size: 30px;&quot;&gt;&lt;b&gt;↑&lt;/b&gt;&lt;/font&gt;" style="rounded=1;whiteSpace=wrap;html=1;strokeWidth=4;" parent="cFaB45KztUIKXS-_cTrr-14" vertex="1">
          <mxGeometry x="1296" y="259" width="50" height="50" as="geometry" />
        </mxCell>
        <mxCell id="-aRjbIlAvJyihVMSlcDC-103" value="&lt;span style=&quot;font-size: 30px;&quot;&gt;&lt;b&gt;↓&lt;/b&gt;&lt;/span&gt;" style="rounded=1;whiteSpace=wrap;html=1;strokeWidth=4;" parent="cFaB45KztUIKXS-_cTrr-14" vertex="1">
          <mxGeometry x="1366" y="259" width="50" height="50" as="geometry" />
        </mxCell>
        <mxCell id="-aRjbIlAvJyihVMSlcDC-104" style="connectable=0;recursiveResize=0;strokeColor=inherit;fillColor=none;align=left;whiteSpace=wrap;html=1;" parent="cFaB45KztUIKXS-_cTrr-14" vertex="1">
          <mxGeometry x="1273" y="313" width="170" height="60" as="geometry">
            <mxRectangle width="170" height="60" as="alternateBounds" />
          </mxGeometry>
        </mxCell>
        <mxCell id="-aRjbIlAvJyihVMSlcDC-105" value="&lt;font style=&quot;font-size: 30px;&quot;&gt;&lt;b&gt;↑&lt;/b&gt;&lt;/font&gt;" style="rounded=1;whiteSpace=wrap;html=1;strokeWidth=4;" parent="cFaB45KztUIKXS-_cTrr-14" vertex="1">
          <mxGeometry x="1296" y="319" width="50" height="50" as="geometry" />
        </mxCell>
        <mxCell id="-aRjbIlAvJyihVMSlcDC-106" value="&lt;span style=&quot;font-size: 30px;&quot;&gt;&lt;b&gt;↓&lt;/b&gt;&lt;/span&gt;" style="rounded=1;whiteSpace=wrap;html=1;strokeWidth=4;" parent="cFaB45KztUIKXS-_cTrr-14" vertex="1">
          <mxGeometry x="1366" y="319" width="50" height="50" as="geometry" />
        </mxCell>
        <mxCell id="-aRjbIlAvJyihVMSlcDC-107" style="connectable=0;recursiveResize=0;strokeColor=inherit;fillColor=none;align=left;whiteSpace=wrap;html=1;" parent="cFaB45KztUIKXS-_cTrr-14" vertex="1">
          <mxGeometry x="1270" y="372" width="170" height="60" as="geometry">
            <mxRectangle width="170" height="60" as="alternateBounds" />
          </mxGeometry>
        </mxCell>
        <mxCell id="-aRjbIlAvJyihVMSlcDC-108" value="&lt;font style=&quot;font-size: 30px;&quot;&gt;&lt;b&gt;↑&lt;/b&gt;&lt;/font&gt;" style="rounded=1;whiteSpace=wrap;html=1;strokeWidth=4;" parent="cFaB45KztUIKXS-_cTrr-14" vertex="1">
          <mxGeometry x="1296" y="378" width="50" height="50" as="geometry" />
        </mxCell>
        <mxCell id="-aRjbIlAvJyihVMSlcDC-109" value="&lt;span style=&quot;font-size: 30px;&quot;&gt;&lt;b&gt;↓&lt;/b&gt;&lt;/span&gt;" style="rounded=1;whiteSpace=wrap;html=1;strokeWidth=4;" parent="cFaB45KztUIKXS-_cTrr-14" vertex="1">
          <mxGeometry x="1366" y="378" width="50" height="50" as="geometry" />
        </mxCell>
        <mxCell id="-aRjbIlAvJyihVMSlcDC-110" style="connectable=0;recursiveResize=0;strokeColor=inherit;fillColor=none;align=left;whiteSpace=wrap;html=1;" parent="cFaB45KztUIKXS-_cTrr-14" vertex="1">
          <mxGeometry x="1269" y="433" width="170" height="60" as="geometry">
            <mxRectangle width="170" height="60" as="alternateBounds" />
          </mxGeometry>
        </mxCell>
        <mxCell id="-aRjbIlAvJyihVMSlcDC-111" value="&lt;font style=&quot;font-size: 30px;&quot;&gt;&lt;b&gt;↑&lt;/b&gt;&lt;/font&gt;" style="rounded=1;whiteSpace=wrap;html=1;strokeWidth=4;" parent="cFaB45KztUIKXS-_cTrr-14" vertex="1">
          <mxGeometry x="1295" y="439" width="50" height="50" as="geometry" />
        </mxCell>
        <mxCell id="-aRjbIlAvJyihVMSlcDC-112" value="&lt;span style=&quot;font-size: 30px;&quot;&gt;&lt;b&gt;↓&lt;/b&gt;&lt;/span&gt;" style="rounded=1;whiteSpace=wrap;html=1;strokeWidth=4;" parent="cFaB45KztUIKXS-_cTrr-14" vertex="1">
          <mxGeometry x="1365" y="439" width="50" height="50" as="geometry" />
        </mxCell>
        <mxCell id="-aRjbIlAvJyihVMSlcDC-135" value="" style="rounded=1;whiteSpace=wrap;html=1;strokeWidth=4;" parent="cFaB45KztUIKXS-_cTrr-14" vertex="1">
          <mxGeometry x="22" y="740" width="1498" height="180" as="geometry" />
        </mxCell>
        <mxCell id="-aRjbIlAvJyihVMSlcDC-136" value="&lt;span style=&quot;font-size: 30px;&quot;&gt;未分類項目&lt;/span&gt;" style="text;html=1;strokeColor=none;fillColor=none;align=left;verticalAlign=middle;whiteSpace=wrap;rounded=0;" parent="cFaB45KztUIKXS-_cTrr-14" vertex="1">
          <mxGeometry x="36" y="690" width="250" height="40" as="geometry" />
        </mxCell>
        <mxCell id="-aRjbIlAvJyihVMSlcDC-137" value="&lt;span style=&quot;font-size: 30px;&quot;&gt;▼A氏寄付200,000&lt;/span&gt;" style="rounded=0;whiteSpace=wrap;html=1;align=left;fillColor=#FFFFFF;" parent="cFaB45KztUIKXS-_cTrr-14" vertex="1">
          <mxGeometry x="45" y="749" width="334" height="48" as="geometry" />
        </mxCell>
        <mxCell id="-aRjbIlAvJyihVMSlcDC-138" value="&lt;span style=&quot;font-size: 30px;&quot;&gt;▼B氏寄付300,000&lt;/span&gt;" style="rounded=0;whiteSpace=wrap;html=1;align=left;fillColor=#FFFFFF;" parent="cFaB45KztUIKXS-_cTrr-14" vertex="1">
          <mxGeometry x="398" y="750" width="334" height="48" as="geometry" />
        </mxCell>
        <mxCell id="-aRjbIlAvJyihVMSlcDC-139" value="&lt;span style=&quot;font-size: 30px;&quot;&gt;▼議員X氏寄付-50,000&lt;/span&gt;" style="rounded=0;whiteSpace=wrap;html=1;align=left;fillColor=#FFFFFF;" parent="cFaB45KztUIKXS-_cTrr-14" vertex="1">
          <mxGeometry x="41" y="809" width="334" height="48" as="geometry" />
        </mxCell>
        <mxCell id="-aRjbIlAvJyihVMSlcDC-140" value="&lt;span style=&quot;font-size: 30px;&quot;&gt;▼喫茶 -8.940円&lt;/span&gt;" style="rounded=0;whiteSpace=wrap;html=1;align=left;fillColor=#FFFFFF;" parent="cFaB45KztUIKXS-_cTrr-14" vertex="1">
          <mxGeometry x="746" y="807" width="332" height="48" as="geometry" />
        </mxCell>
        <mxCell id="-aRjbIlAvJyihVMSlcDC-141" value="&lt;span style=&quot;font-size: 30px;&quot;&gt;▼議員Y氏寄付-50,000&lt;/span&gt;" style="rounded=0;whiteSpace=wrap;html=1;align=left;fillColor=#FFFFFF;" parent="cFaB45KztUIKXS-_cTrr-14" vertex="1">
          <mxGeometry x="394" y="808" width="334" height="48" as="geometry" />
        </mxCell>
        <mxCell id="XEzsyxBTXAWv2MW_PeDP-25" value="&lt;span style=&quot;font-size: 30px;&quot;&gt;一日のスケジュール&lt;/span&gt;" style="text;html=1;strokeColor=none;fillColor=none;align=left;verticalAlign=middle;whiteSpace=wrap;rounded=0;" parent="cFaB45KztUIKXS-_cTrr-14" vertex="1">
          <mxGeometry x="34" y="80" width="326" height="40" as="geometry" />
        </mxCell>
        <mxCell id="fEjhOvrRUlLvb5Ld7npS-0" value="&lt;span style=&quot;font-size: 30px;&quot;&gt;&lt;b&gt;削除&lt;/b&gt;&lt;/span&gt;" style="rounded=1;whiteSpace=wrap;html=1;strokeWidth=4;" vertex="1" parent="cFaB45KztUIKXS-_cTrr-14">
          <mxGeometry x="1456" y="199" width="104" height="50" as="geometry" />
        </mxCell>
        <mxCell id="fEjhOvrRUlLvb5Ld7npS-10" value="&lt;span style=&quot;font-size: 30px;&quot;&gt;&lt;b&gt;削除&lt;/b&gt;&lt;/span&gt;" style="rounded=1;whiteSpace=wrap;html=1;strokeWidth=4;" vertex="1" parent="cFaB45KztUIKXS-_cTrr-14">
          <mxGeometry x="1456" y="260" width="104" height="50" as="geometry" />
        </mxCell>
        <mxCell id="fEjhOvrRUlLvb5Ld7npS-11" value="&lt;span style=&quot;font-size: 30px;&quot;&gt;&lt;b&gt;削除&lt;/b&gt;&lt;/span&gt;" style="rounded=1;whiteSpace=wrap;html=1;strokeWidth=4;" vertex="1" parent="cFaB45KztUIKXS-_cTrr-14">
          <mxGeometry x="1456" y="319" width="104" height="50" as="geometry" />
        </mxCell>
        <mxCell id="fEjhOvrRUlLvb5Ld7npS-12" value="&lt;span style=&quot;font-size: 30px;&quot;&gt;&lt;b&gt;削除&lt;/b&gt;&lt;/span&gt;" style="rounded=1;whiteSpace=wrap;html=1;strokeWidth=4;" vertex="1" parent="cFaB45KztUIKXS-_cTrr-14">
          <mxGeometry x="1456" y="379" width="104" height="50" as="geometry" />
        </mxCell>
        <mxCell id="fEjhOvrRUlLvb5Ld7npS-13" value="&lt;span style=&quot;font-size: 30px;&quot;&gt;&lt;b&gt;削除&lt;/b&gt;&lt;/span&gt;" style="rounded=1;whiteSpace=wrap;html=1;strokeWidth=4;" vertex="1" parent="cFaB45KztUIKXS-_cTrr-14">
          <mxGeometry x="1456" y="439" width="104" height="50" as="geometry" />
        </mxCell>
      </root>
    </mxGraphModel>
  </diagram>
</mxfile>
